<?xml version="1.0" encoding="utf-8"?>
<!-- Generator: Adobe Illustrator 27.0.0, SVG Export Plug-In . SVG Version: 6.00 Build 0)  -->
<svg version="1.1" id="Layer_1" xmlns="http://www.w3.org/2000/svg" xmlns:xlink="http://www.w3.org/1999/xlink" x="0px" y="0px"
	 viewBox="0 0 1024 1024" style="enable-background:new 0 0 1024 1024;" xml:space="preserve">
<style type="text/css">
	.st0{fill:#5FBB47;}
	.st1{fill:#55A946;}
	.st2{fill:#F15E23;}
	.st3{fill:#55A947;}
	.st4{fill:#54B348;}
</style>
<g>
	<path class="st0" d="M360.14,366.4c-31.47,5.13-59.25,19.05-85.77,35.97c-38.46-80.01-94.05-146.1-162.51-202.15
		c-32.43-26.55-67.32-49.14-103.3-70.28c-4.86-2.85-9.42-4.88-8.41-11.93c1-6.97,2.65-12.23,10.11-15.69
		c22.07-10.24,45.19-11.11,68.58-8.89c42.95,4.08,81.5,20.95,118.35,42.32c20.23,11.73,38.9,25.62,55.82,41.73
		c6.76,6.44,9.89,6.1,11.54-3.45c12.51-72.24,55.82-119.49,121.13-148.79c3.67-1.65,7.4-3.95,11.24-4.26
		c6.61-0.53,13.76,0,18.33,5.61c4.57,5.61,0.7,11.16-2.23,16.14c-28.14,47.9-42.61,100.21-50.25,154.76
		c-0.47,3.33-3.68,7.42,1.55,9.03c3.97,1.22,5.92-2.44,8.24-5.43c26.71-34.26,57.79-63.63,96.41-84.25c8.87-4.74,17.8-9.94,29.75-10
		c-15.8,19.94-31.21,38.51-45.66,57.79c-40.92,54.62-72.82,114-93.47,179.25C357.15,351.59,358.18,358.93,360.14,366.4z"/>
	<path class="st0" d="M774.65,467.16c-13.3-4.03-25.81-10.71-39.99-11.72c4.22-14.12,2.12-28.65,1.58-42.82
		c-2.47-64.2-14.2-126.59-40.88-185.45c-5.69-12.56-13.97-23.95-21.26-35.76c-3.3-5.34-5.79-11.14-0.85-15.99
		c4.06-3.99,9.05-4.59,15.8-2.39c58.21,19.05,97.69,56.11,114.21,115.9c2.58,9.33,4.34,12.21,13.03,3.66
		c33.95-33.41,72.96-59.04,118.99-73.01c22.63-6.87,45.51-9.71,68.74-3.65c8.14,2.12,17.77,3.69,19.78,13.87
		c1.87,9.48-8.97,9.79-12.96,15.21C922.56,302.44,854.26,377.17,812,474.48c-1.42,3.28-3.27,6.37-4.91,9.56
		c-3.45-2.34-8.09-2.81-10.55-6.71c-5.09-7.94,0.1-14.98,2.71-21.68c17.72-45.4,44.13-85.35,77.32-120.93
		c2.09-2.24,5.07-3.78,6.17-7.74c-55.24,22.96-86.52,64.57-99.65,121.44C781.6,454.85,784.82,464.31,774.65,467.16z"/>
	<path class="st1" d="M774.65,467.16c7.13-22.02,11.61-44.74,21.39-66.1c15.91-34.74,60.51-72.88,97.16-78.36
		c-16.92,16.15-30.69,31.91-43.09,48.76c-23.74,32.28-43.97,66.41-53.57,105.87C788.6,475.33,781.63,471.22,774.65,467.16z"/>
	<path class="st2" d="M861.01,527.48c-15.41-17.83-36.53-28.26-53.92-43.45c-1.73-4.68-6.31-6.15-9.88-8.75
		c-7.39-4.21-15.16-7.67-22.83-11.29c-12.75-5.16-24.92-12.95-39.73-8.56c-2.64-0.18-5.32-0.17-7.93-0.59
		c-25.11-3.96-49.13-1.96-70.66,13.1c-21.77,15.23-30.09,38.06-35.77,62.66c-2.59,11.19-2.4,23.37-9.44,34.43
		c-2.71-5.28-3.47-9.49-4.05-14.02c-3.86-30.32-10.36-59.84-26.97-86.26c-23.65-37.63-57.4-63.58-97.09-81.67
		c-23.5-10.71-48.37-17.1-74.93-18.04c-16.07-0.57-31.78,1.97-47.68,1.35c-4.1-2.71-8.44-2.46-12.86-1.02
		c-11.47,3.73-23.42,6.43-34.05,12.11c-13.56,7.25-29.83,10.51-38.86,24.88c-1.7,7.56-9.31,9.29-14.04,13.77
		c-47.62,45.07-73.44,99.74-79.16,165.42c-4.06,46.55,5.79,89.38,27.62,129.1c31.84,57.93,78.91,102.21,133.26,139.19
		c34.51,23.48,70.87,44.23,103.03,71.24c24.92,20.94,50.17,41.68,78.86,57.48c20.18,11.12,40.01,23.45,64.06,24.62
		c13.82-3.63,25.14-11.5,35.81-20.69c18.35-15.79,36.75-31.54,55.45-46.9c49.89-40.97,100.5-81.25,142.94-130.24
		c40.14-46.34,76.42-94.99,78.87-160.17C902.74,600.77,890.34,561.41,861.01,527.48z M199.82,676.78
		c17.65-0.61,33.4-3.8,48.63-10.22C235.66,685.01,214.6,689.48,199.82,676.78z M510.18,609.77c2.57-1.74,5.34-4.29,8.32-1.14
		c2.97,3.13,0.51,5.94-1.6,8.2c-29.28,31.36-67.91,46.99-110.59,31.57c-1.66-0.6-3.43-1.31-3.08-5.34
		C441.44,640.06,477.91,631.56,510.18,609.77z M420.13,483.12c9.02-3.96,17.64-8.83,26.35-13.46c2.42-1.29,4.49-3.19,7.1-0.56
		c2.37,2.39,1.65,4.59,0.03,7.15c-19.32,30.63-84.65,45.79-116.28,26.87c-0.64-0.38-0.87-1.46-2.3-3.99
		C364.89,497.66,393.43,494.85,420.13,483.12z M298.6,618.43c-2.09-0.86-4.29-1.41-5-4.34c6.18-4.75,13.72-2.66,20.47-3.04
		c31.56-1.76,60.93-10.24,88.23-26.18c2.99-1.75,6.3-6.77,10.27-1.56c3.8,4.99-1.34,7.11-3.95,9.73
		C377.66,624.05,335.73,633.68,298.6,618.43z M454.49,760.62c-18.39,16.51-38.88,25.47-63.97,17.26c-1.65-2.91,1.18-3.65,2.5-5.12
		l-0.03,0.01c5.1-3.16,11.23,0.59,16.35-2.45c14.4-3.59,28.3-8.37,40.87-16.53c2.46-1.6,5.66-5.05,8.15-1.79
		C461.18,755.73,456.97,758.39,454.49,760.62z M487.99,816.95c14.65-2.14,27.58-2.59,40.22-5.81c12.12-3.09,22.47-10.45,34.89-14
		C557.15,820.93,510.32,833.94,487.99,816.95z M655.72,917.43c-1.45,2.74-4.78,1.03-7.35,0.5c-24.5-5.02-46.78-27.74-49.23-50.26
		c1.69-1.45,3.36-1.75,4.99,0.1c12.9,17.39,26.95,33.5,47.16,42.86C654.13,911.95,657.73,913.65,655.72,917.43z M685.93,819.58
		c-1.2,3.29-4.33,2.66-6.91,1.98c-23.77-6.18-42.62-18.19-50.58-42.99c-1.18-2.82-2.44-5.68,2.6-5.62
		c14.68,16.38,29.42,32.66,50.52,41.18C683.93,815.08,687.25,815.97,685.93,819.58z M645.38,503.31
		c16.98,24.29,33.91,44.4,58.98,55.63c2.52,1.13,5.18,2.46,3.82,5.86c-1.01,2.53-3.54,2.34-5.78,1.91
		C677.88,562.07,644.66,539.21,645.38,503.31z M796.56,790.21c-1.33,2.92-3.97,3.16-6.86,2.64c-38.81-7.04-82.67-33.54-85.91-86.41
		c24.56,34.6,51.82,61.28,88.54,76.82C795.23,784.49,798.45,786.06,796.56,790.21z M803.96,691.16c-2.25,5.03-7.14,1.7-10.8,0.87
		c-43.15-9.77-74.13-40.89-78.32-78.57c1.39-7.14,4.01-1.8,6.22-0.61c19.42,29.36,43.94,53.12,75.39,69.51
		C799.69,684.07,806.84,684.75,803.96,691.16z M872.82,640.33c-1.41,4.22-4.84,3.15-7.9,2.48c-40.81-9.02-78.92-37.45-83.12-91.21
		c17.96,25.91,34.97,47.7,57.65,64.37c9.11,6.7,18.57,12.59,28.87,17.22C871.19,634.48,874.15,636.35,872.82,640.33z"/>
	<path class="st3" d="M347.04,79.81c-12.83,33.07-23.32,66.83-28.07,102.08c-3.16,23.47-8.77,46.72-7.23,70.71
		c0.42,6.53,0.06,13.12-2.72,20.51c-10.98-18.62-24.1-36.37-32.17-56.17c-5.1-12.53-1.36-28.23,1.24-42.11
		c7.96-42.58,31.38-75.38,66.2-100.49C348.88,74.32,348.9,76.59,347.04,79.81z"/>
	<path class="st4" d="M347.04,79.81c-0.07-2.24-0.53-4.29-2.75-5.46c1.69-2.34,3.45-7,6.57-3.29
		C353.19,73.83,349.75,77.42,347.04,79.81z"/>
</g>
</svg>
